<svg width="33" height="32" viewBox="0 0 33 32" fill="none" xmlns="http://www.w3.org/2000/svg">
<path d="M23.8727 18.3875C23.8104 18.3576 21.4775 17.2088 21.0629 17.0596C20.8937 16.9988 20.7124 16.9395 20.5196 16.9395C20.2045 16.9395 19.9399 17.0965 19.7338 17.4049C19.5008 17.7513 18.7953 18.5759 18.5773 18.8222C18.5489 18.8547 18.51 18.8936 18.4867 18.8936C18.4658 18.8936 18.1048 18.7449 17.9955 18.6974C15.493 17.6104 13.5934 14.9962 13.333 14.5554C13.3073 14.5117 13.3188 14.42 13.3528 14.3825C13.3796 14.3529 13.4098 14.3227 13.4306 14.3018C13.5577 14.1761 13.6953 14.0104 13.8285 13.8501C13.8916 13.7741 13.9548 13.6981 14.0168 13.6264C14.21 13.4015 14.2961 13.227 14.3958 13.0248L14.4481 12.9198C14.6916 12.4359 14.4836 12.0276 14.4164 11.8958C14.3612 11.7854 13.3762 9.40808 13.2714 9.15832C13.0196 8.55562 12.6868 8.27499 12.2244 8.27499C12.1815 8.27499 12.2244 8.27499 12.0444 8.28258C11.8253 8.29182 10.6321 8.44892 10.1045 8.78149C9.54501 9.13421 8.59851 10.2586 8.59851 12.2359C8.59851 14.0156 9.72786 15.6959 10.2127 16.3349C10.2248 16.351 10.2469 16.3838 10.279 16.4307C12.136 19.1426 14.4509 21.1524 16.7976 22.0898C19.0568 22.9923 20.1266 23.0966 20.7348 23.0966C20.7349 23.0966 20.7349 23.0966 20.7349 23.0966C20.9905 23.0966 21.1951 23.0766 21.3756 23.0588L21.4901 23.0479C22.2705 22.9787 23.9856 22.09 24.3758 21.0058C24.6831 20.1519 24.7641 19.2189 24.5597 18.8803C24.4196 18.6501 24.1783 18.5342 23.8727 18.3875Z" fill="white"/>
<path d="M16.4786 -6.10352e-05C7.81202 -6.10352e-05 0.761206 6.99776 0.761206 15.5992C0.761206 17.6094 1.14991 19.5889 1.89766 21.4316C2.44584 22.7826 2.64682 24.2822 2.17875 25.6629L0.216582 31.451C0.166296 31.5994 0.203699 31.7636 0.313517 31.8754C0.39279 31.9563 0.500322 31.9999 0.610141 31.9999C0.652219 31.9999 0.694608 31.9936 0.735959 31.9804L7.02919 29.9806C8.31446 29.5722 9.69701 29.7375 10.9613 30.2067C12.7162 30.8581 14.5893 31.1967 16.4787 31.1967C25.1445 31.1968 32.1946 24.1997 32.1946 15.5992C32.1946 6.99776 25.1445 -6.10352e-05 16.4786 -6.10352e-05ZM16.4786 27.9474C14.033 27.9474 11.6643 27.2412 9.62812 25.9051C9.55965 25.8601 9.48017 25.837 9.40017 25.837C9.35789 25.837 9.3155 25.8435 9.27425 25.8566L9.10106 25.9116C7.44852 26.4369 5.90088 24.8595 6.45752 23.2173C6.50095 23.0891 6.47924 22.9477 6.39924 22.8384C4.84869 20.7197 4.02905 18.2166 4.02905 15.5992C4.02905 8.78955 9.61389 3.24939 16.4785 3.24939C23.3423 3.24939 28.9265 8.78955 28.9265 15.5992C28.9266 22.408 23.3425 27.9474 16.4786 27.9474Z" fill="white"/>
</svg>
